<?xml version="1.0" standalone="no"?>
<!DOCTYPE svg PUBLIC "-//W3C//DTD SVG 20010904//EN"
 "http://www.w3.org/TR/2001/REC-SVG-20010904/DTD/svg10.dtd">
<svg version="1.0" xmlns="http://www.w3.org/2000/svg"
 width="600.000000pt" height="600.000000pt" viewBox="0 0 600.000000 600.000000"
 preserveAspectRatio="xMidYMid meet">
<metadata>
Created by potrace 1.14, written by Peter Selinger 2001-2017
</metadata>
<g transform="translate(0.000000,600.000000) scale(0.100000,-0.100000)"
fill="#000000" stroke="none">
<path d="M5245 4624 c-33 -7 -76 -15 -95 -18 -19 -3 -69 -13 -110 -22 -41 -8
-83 -17 -93 -19 -10 -2 -26 -6 -35 -9 -9 -3 -28 -7 -42 -10 -40 -8 -62 -13
-110 -26 -25 -7 -49 -13 -55 -14 -11 -3 -54 -15 -185 -53 -85 -24 -292 -89
-320 -100 -8 -4 -17 -7 -20 -8 -7 -2 -23 -9 -165 -62 -66 -26 -145 -57 -175
-70 -30 -14 -82 -37 -115 -51 -85 -38 -327 -162 -345 -176 -8 -7 -37 -25 -65
-41 -104 -59 -243 -156 -375 -260 -47 -38 -257 -251 -290 -295 -19 -25 -37
-47 -40 -50 -23 -22 -99 -143 -146 -234 -81 -157 -128 -313 -153 -511 -8 -59
-5 -362 3 -420 3 -16 7 -48 11 -70 3 -22 8 -51 11 -65 3 -14 8 -41 11 -60 2
-19 9 -39 14 -44 5 -6 9 -19 9 -31 0 -24 48 -153 85 -225 58 -114 144 -230
196 -263 16 -11 29 -15 30 -10 0 4 2 19 4 33 1 14 6 54 9 90 4 36 8 75 10 85
2 11 7 50 10 87 4 37 9 77 11 90 6 33 16 99 19 128 2 14 6 32 10 41 4 9 6 20
5 25 -1 5 -1 11 1 14 1 3 4 16 6 29 2 14 12 52 20 85 9 34 17 68 19 76 2 8 9
35 16 60 7 25 13 50 15 55 4 19 65 200 74 220 22 49 59 136 59 140 2 14 81
171 128 252 141 246 362 505 553 647 30 23 61 46 68 53 51 48 377 222 447 239
17 4 35 10 40 14 17 12 55 19 55 9 0 -5 -5 -9 -10 -9 -9 0 -87 -47 -100 -60
-3 -3 -23 -18 -45 -35 -141 -104 -304 -284 -434 -478 -47 -70 -203 -359 -201
-372 0 -3 -9 -27 -20 -53 -47 -104 -142 -414 -163 -532 -3 -14 -8 -36 -11 -50
-3 -14 -8 -41 -10 -61 -3 -20 -7 -42 -10 -50 -3 -8 -8 -39 -11 -69 -4 -30 -8
-66 -10 -80 -10 -72 -16 -132 -21 -190 -3 -36 -7 -90 -9 -120 -3 -30 -7 -86
-10 -125 -4 -61 -9 -114 -20 -215 -1 -14 -6 -61 -9 -105 -4 -44 -10 -88 -12
-97 -3 -10 -4 -18 -2 -19 78 -15 311 -19 388 -7 25 4 61 10 80 13 63 11 200
55 268 88 263 124 431 349 546 727 25 84 73 287 80 345 3 16 9 59 15 95 6 36
13 82 16 103 3 20 8 54 11 75 8 55 15 103 19 137 1 17 6 55 9 85 4 30 9 71 11
90 5 55 16 142 20 170 2 14 6 48 10 75 13 115 25 195 41 295 8 47 17 98 19
114 2 15 7 35 9 45 3 9 8 32 11 51 12 71 55 229 91 331 35 101 120 281 136
287 4 2 8 8 8 14 0 17 96 132 163 194 53 49 160 123 201 137 6 3 9 6 6 9 -3 2
-32 -2 -65 -8z"/>
<path d="M905 3303 c19 -193 56 -431 89 -568 4 -14 16 -76 21 -100 2 -11 4
-20 5 -20 1 0 3 -8 6 -17 12 -52 34 -129 59 -208 134 -429 339 -771 567 -947
94 -72 261 -154 346 -169 12 -2 34 -7 50 -10 43 -9 242 -14 242 -6 0 4 -15 23
-33 42 -71 75 -327 417 -327 436 0 5 -40 64 -50 74 -3 3 -12 16 -19 30 -8 14
-43 72 -78 128 -35 57 -63 106 -63 108 0 2 -16 28 -35 58 -19 30 -35 57 -35
59 0 3 -24 47 -53 98 -29 52 -79 146 -112 209 -32 63 -66 130 -76 148 -11 18
-26 49 -34 70 l-15 37 23 -30 c31 -42 243 -295 302 -360 11 -13 47 -53 80 -91
88 -100 154 -174 196 -219 21 -22 46 -50 57 -63 23 -26 133 -149 165 -185 45
-48 146 -163 166 -187 11 -14 -2 20 -28 75 -71 146 -98 237 -137 455 -8 49
-15 450 -7 463 3 5 8 27 9 48 4 36 0 41 -59 90 -175 147 -357 264 -567 365
-63 31 -124 59 -135 64 -11 4 -36 15 -55 23 -112 49 -333 125 -336 116 0 -2
-7 1 -15 8 -8 7 -30 15 -48 18 -19 3 -43 11 -53 16 -19 11 -20 8 -13 -58z"/>
</g>
</svg>
